<?xml version="1.0" encoding="UTF-8" standalone="no"?>
<!-- Generator: Adobe Illustrator 14.0.0, SVG Export Plug-In . SVG Version: 6.00 Build 43363)  -->

<svg
   xmlns:dc="http://purl.org/dc/elements/1.1/"
   xmlns:cc="http://creativecommons.org/ns#"
   xmlns:rdf="http://www.w3.org/1999/02/22-rdf-syntax-ns#"
   xmlns:svg="http://www.w3.org/2000/svg"
   xmlns="http://www.w3.org/2000/svg"
   xmlns:xlink="http://www.w3.org/1999/xlink"
   xmlns:sodipodi="http://sodipodi.sourceforge.net/DTD/sodipodi-0.dtd"
   xmlns:inkscape="http://www.inkscape.org/namespaces/inkscape"
   version="1.0"
   id="Layer_1"
   x="0px"
   y="0px"
   width="100px"
   height="65.775px"
   viewBox="0 0 100 65.775"
   enable-background="new 0 0 100 65.775"
   xml:space="preserve"
   inkscape:version="0.48.0 r9654"
   sodipodi:docname="noun_project_328.svg"
   inkscape:export-filename="C:\Users\Rasmus\Stud.IP-Workspace\studip_trunk\public\plugins_packages\data-quest\InstantMessenger\assets\noun_project_328.png"
   inkscape:export-xdpi="339.54312"
   inkscape:export-ydpi="339.54312"><metadata
   id="metadata11"><rdf:RDF><cc:Work
       rdf:about=""><dc:format>image/svg+xml</dc:format><dc:type
         rdf:resource="http://purl.org/dc/dcmitype/StillImage" /><dc:title></dc:title></cc:Work></rdf:RDF></metadata><defs
   id="defs9"><linearGradient
     inkscape:collect="always"
     id="linearGradient3762"><stop
       style="stop-color:#24437c;stop-opacity:1;"
       offset="0"
       id="stop3764" /><stop
       style="stop-color:#24437c;stop-opacity:0;"
       offset="1"
       id="stop3766" /></linearGradient><linearGradient
     inkscape:collect="always"
     xlink:href="#linearGradient3762"
     id="linearGradient3768"
     x1="-0.90412372"
     y1="33.791626"
     x2="101.93995"
     y2="33.791626"
     gradientUnits="userSpaceOnUse" /></defs><sodipodi:namedview
   pagecolor="#ffffff"
   bordercolor="#666666"
   borderopacity="1"
   objecttolerance="10"
   gridtolerance="10"
   guidetolerance="10"
   inkscape:pageopacity="0"
   inkscape:pageshadow="2"
   inkscape:window-width="1158"
   inkscape:window-height="613"
   id="namedview7"
   showgrid="false"
   inkscape:zoom="4.4241732"
   inkscape:cx="50"
   inkscape:cy="42.357797"
   inkscape:window-x="0"
   inkscape:window-y="0"
   inkscape:window-maximized="0"
   inkscape:current-layer="Layer_1" />
<rect
   style="fill:#ffffff;fill-opacity:1;fill-rule:nonzero;stroke:#ffffff;stroke-width:0.80000000999999998;stroke-linecap:round;stroke-linejoin:round;stroke-miterlimit:4;stroke-opacity:0.48076920000000001;stroke-dasharray:none"
   id="rect3770"
   width="101.93995"
   height="68.939438"
   x="-1.1301546"
   y="-0.67809278" /><path
   d="M97.627,63.333c-3.061-2.112-5.205-5.248-6.668-8.203c4.944-3.035,8.047-7.409,8.047-12.272  c0-8.125-8.665-14.883-20.105-16.312c0,0.058,0.003,0.116,0.003,0.173c0,11.305-10.888,20.895-25.979,24.268  c4.22,5.052,12.248,8.467,21.462,8.467c2.849,0,5.585-0.328,8.13-0.928C87.969,62.604,106.512,69.466,97.627,63.333z"
   id="path3" />
<rect
   style="fill:url(#linearGradient3768);fill-opacity:1;fill-rule:nonzero;stroke:none"
   id="rect2992"
   width="102.84408"
   height="68.939438"
   x="-0.90412372"
   y="-0.67809278" /><path
   d="M77.37,25.388C77.23,11.351,60.309,0,39.451,0C18.508,0,1.53,11.444,1.53,25.562c0,7.491,4.779,14.228,12.395,18.903  c-2.253,4.551-5.556,9.381-10.271,12.636c-13.685,9.445,14.876-1.123,23.275-7.405c3.92,0.924,8.134,1.428,12.523,1.428  c4.172,0,8.187-0.455,11.942-1.294c15.091-3.373,25.979-12.962,25.979-24.268C77.373,25.504,77.37,25.446,77.37,25.388z"
   id="path5"
   style="stroke:#ffffff;stroke-opacity:0.48076922000000000;stroke-width:0.8;stroke-miterlimit:4;stroke-dasharray:none" />
</svg>